# xmcd
# 
# Track frame offsets:
#     150
#     11943
#     29574
#     43512
#     56594
#     70019
#     86259
#     97642
#     114736
#     124495
#     149040
# 
# Disc length: 2191
# 
# Revision: 0
# Processed by: cddbd v1.5.2PL0 Copyright (c) Steve Scherf et al.
# Submitted via: fre:ac v1.0.31
# 
DISCID=98088d0b
DTITLE=Railroad Company - All Aboard
DYEAR=0
DGENRE=Country
TTITLE0=Little Bitty
TTITLE1=Delta Dawn
TTITLE2=Toot Toot
TTITLE3=Rockin' with the Rhythm of the Rain
TTITLE4=Six Days on the Road
TTITLE5=Have Mercy
TTITLE6=Que Paso
TTITLE7=Fire
TTITLE8=Dang Me
TTITLE9=Grandpa
TTITLE10=Fiddle Cartoon
EXTD=
EXTT0=
EXTT1=
EXTT2=
EXTT3=
EXTT4=
EXTT5=
EXTT6=
EXTT7=
EXTT8=
EXTT9=
EXTT10=
PLAYORDER=
